<?xml version="1.0" encoding="utf-8"?>
<!-- Generator: Adobe Illustrator 16.0.0, SVG Export Plug-In . SVG Version: 6.00 Build 0)  -->
<!DOCTYPE svg PUBLIC "-//W3C//DTD SVG 1.1//EN" "http://www.w3.org/Graphics/SVG/1.1/DTD/svg11.dtd">
<svg version="1.1" id="图层_1" xmlns="http://www.w3.org/2000/svg" xmlns:xlink="http://www.w3.org/1999/xlink" x="0px" y="0px"
	 width="16px" height="16px" viewBox="0 0 16 16" enable-background="new 0 0 16 16" xml:space="preserve">
<g>
	<path fill-rule="evenodd" clip-rule="evenodd" fill="#FFFFFF" d="M8.333,0.83c0.191,0.043,0.385,0.078,0.574,0.13
		c1.434,0.39,2.45,1.69,2.462,3.179c0.004,0.446-0.057,0.894-0.067,1.342c-0.003,0.134,0.027,0.29,0.1,0.398
		c0.344,0.516,0.253,1.132-0.231,1.526c-0.087,0.07-0.161,0.178-0.196,0.283c-0.21,0.625-0.54,1.171-1.016,1.629
		C9.734,9.534,9.741,9.618,9.986,9.806c1.439,1.1,2.985,2.013,4.68,2.66c0.447,0.171,0.693,0.482,0.71,0.948
		c0.019,0.551,0.026,1.104-0.006,1.654c-0.035,0.601-0.417,0.923-1.019,0.923c-4.261,0-8.521-0.006-12.781,0.009
		c-0.473,0.001-0.908-0.357-0.933-0.759c-0.041-0.677-0.042-1.358,0.003-2.034c0.023-0.365,0.306-0.596,0.655-0.731
		c1.69-0.656,3.247-1.549,4.686-2.651c0.31-0.235,0.313-0.252,0.035-0.521C5.55,8.852,5.217,8.317,5.01,7.7
		C4.972,7.587,4.889,7.475,4.798,7.396C4.309,6.98,4.238,6.37,4.607,5.846c0.069-0.097,0.08-0.249,0.08-0.377
		C4.693,4.8,4.594,4.113,4.705,3.463c0.232-1.366,1.41-2.4,2.785-2.584C7.547,0.871,7.603,0.847,7.66,0.83
		C7.884,0.83,8.109,0.83,8.333,0.83z M10.096,10.689c-0.185-0.14-0.362-0.274-0.54-0.409C9.06,9.905,9.016,9.33,9.465,8.904
		c0.478-0.45,0.789-0.989,0.962-1.622c0.033-0.124,0.143-0.256,0.253-0.325c0.329-0.207,0.39-0.466,0.137-0.767
		c-0.147-0.176-0.2-0.36-0.175-0.595c0.048-0.453,0.069-0.91,0.084-1.366c0.029-0.892-0.341-1.602-1.021-2.159
		c-1.56-1.279-4.058-0.396-4.389,1.588C5.212,4.274,5.309,4.929,5.347,5.563c0.015,0.252-0.035,0.453-0.192,0.642
		c-0.24,0.29-0.181,0.552,0.142,0.75c0.096,0.059,0.206,0.153,0.23,0.252c0.18,0.697,0.543,1.27,1.062,1.769
		c0.426,0.409,0.369,0.9-0.098,1.264c-0.194,0.151-0.393,0.297-0.589,0.444c0.422,0.949,1.071,1.651,1.953,2.137
		c0.069,0.039,0.189,0.052,0.254,0.018C9.01,12.35,9.675,11.644,10.096,10.689z M5.363,11.058c-1.241,0.832-2.527,1.507-3.889,2.036
		c-0.19,0.074-0.242,0.235-0.244,0.417c-0.004,0.475-0.01,0.948,0.001,1.422c0.007,0.32,0.138,0.447,0.455,0.484
		c0.094,0.011,0.189,0.008,0.284,0.008c4.018,0,8.034,0,12.051,0c0.078,0,0.155,0.003,0.232-0.003
		c0.352-0.027,0.493-0.173,0.499-0.527c0.007-0.44-0.002-0.88,0.003-1.319c0.003-0.274-0.106-0.439-0.377-0.541
		c-1.246-0.469-2.411-1.099-3.523-1.827c-0.07-0.046-0.143-0.087-0.223-0.135c-0.037,0.069-0.065,0.123-0.093,0.176
		c-0.515,0.986-1.279,1.719-2.262,2.232c-0.196,0.103-0.373,0.115-0.559-0.005c-0.324-0.212-0.663-0.403-0.969-0.639
		C6.146,12.372,5.712,11.763,5.363,11.058z"/>
</g>
</svg>
