<?xml version="1.0" encoding="utf-8"?>
<!-- Generator: Adobe Illustrator 16.0.0, SVG Export Plug-In . SVG Version: 6.00 Build 0)  -->
<!DOCTYPE svg PUBLIC "-//W3C//DTD SVG 1.1//EN" "http://www.w3.org/Graphics/SVG/1.1/DTD/svg11.dtd">
<svg version="1.1" id="Layer_1" xmlns="http://www.w3.org/2000/svg" xmlns:xlink="http://www.w3.org/1999/xlink" x="0px" y="0px"
	 width="16px" height="16px" viewBox="0 8 16 16" enable-background="new 0 8 16 16" xml:space="preserve">
<g>
	<path fill="#FFFFFF" d="M15.048,15.238H0.952c-0.059,0-0.114,0.027-0.15,0.073c-0.036,0.046-0.049,0.106-0.034,0.164l1.525,6.101
		c0.037,0.128,0.149,0.519,0.564,0.519h10.285c0.417,0,0.527-0.391,0.565-0.524l1.524-6.095c0.014-0.057,0.001-0.117-0.034-0.164
		C15.162,15.266,15.106,15.238,15.048,15.238z M13.341,21.472c-0.069,0.242-0.141,0.242-0.198,0.242H2.857
		c-0.057,0-0.128,0-0.196-0.236L1.196,15.62h13.607L13.341,21.472z"/>
	<path fill="#FFFFFF" d="M7.048,20.571c0.104,0,0.19-0.086,0.19-0.19v-3.429c0-0.104-0.086-0.19-0.19-0.19
		c-0.105,0-0.19,0.086-0.19,0.19v3.429C6.857,20.485,6.942,20.571,7.048,20.571z"/>
	<path fill="#FFFFFF" d="M4.381,20.571c0.007,0,0.014,0,0.021-0.001c0.104-0.012,0.18-0.106,0.168-0.21l-0.381-3.429
		c-0.012-0.105-0.103-0.179-0.211-0.169c-0.104,0.012-0.18,0.106-0.168,0.21l0.381,3.429C4.202,20.499,4.285,20.571,4.381,20.571z"
		/>
	<path fill="#FFFFFF" d="M9.333,20.571c0.105,0,0.19-0.086,0.19-0.19v-3.429c0-0.104-0.085-0.19-0.19-0.19
		c-0.104,0-0.19,0.086-0.19,0.19v3.429C9.143,20.485,9.229,20.571,9.333,20.571z"/>
	<path fill="#FFFFFF" d="M11.598,20.57c0.008,0.001,0.015,0.001,0.021,0.001c0.096,0,0.179-0.072,0.189-0.17l0.381-3.429
		c0.012-0.104-0.063-0.198-0.168-0.21c-0.109-0.011-0.198,0.063-0.211,0.169L11.43,20.36C11.418,20.464,11.493,20.559,11.598,20.57z
		"/>
	<path fill="#FFFFFF" d="M13.143,14.477c0.045,0,0.089-0.015,0.125-0.046c0.079-0.069,0.088-0.189,0.02-0.269l-3.619-4.19
		c-0.069-0.08-0.189-0.088-0.269-0.02c-0.08,0.069-0.089,0.189-0.02,0.269l3.619,4.19C13.036,14.454,13.089,14.477,13.143,14.477z"
		/>
	<path fill="#FFFFFF" d="M6.787,9.948C6.706,9.882,6.586,9.893,6.52,9.975l-3.429,4.191c-0.066,0.081-0.055,0.201,0.026,0.268
		c0.035,0.028,0.079,0.042,0.121,0.042c0.055,0,0.109-0.023,0.147-0.07l3.429-4.19C6.881,10.135,6.868,10.015,6.787,9.948z"/>
	<path fill="#FFFFFF" d="M15.81,13.715h-1.523c-0.105,0-0.19,0.085-0.19,0.19s0.085,0.19,0.19,0.19h1.523
		c0.104,0,0.19-0.085,0.19-0.19S15.914,13.715,15.81,13.715z"/>
	<path fill="#FFFFFF" d="M5.143,14.096h6.096c0.104,0,0.19-0.085,0.19-0.19s-0.086-0.19-0.19-0.19H5.143
		c-0.104,0-0.19,0.085-0.19,0.19S5.038,14.096,5.143,14.096z"/>
	<path fill="#FFFFFF" d="M0.19,14.096h1.905c0.104,0,0.19-0.085,0.19-0.19s-0.086-0.19-0.19-0.19H0.19C0.085,13.715,0,13.8,0,13.905
		S0.085,14.096,0.19,14.096z"/>
</g>
</svg>
