<?xml version="1.0" encoding="utf-8"?>
<!-- Generator: Adobe Illustrator 16.0.0, SVG Export Plug-In . SVG Version: 6.00 Build 0)  -->
<!DOCTYPE svg PUBLIC "-//W3C//DTD SVG 1.1//EN" "http://www.w3.org/Graphics/SVG/1.1/DTD/svg11.dtd">
<svg version="1.1" id="图层_1" xmlns="http://www.w3.org/2000/svg" xmlns:xlink="http://www.w3.org/1999/xlink" x="0px" y="0px"
	 width="128px" height="128px" viewBox="0 0 128 128" enable-background="new 0 0 128 128" xml:space="preserve">
<path fill="#FFFFFF" d="M64,5c32.533,0,59,26.467,59,59s-26.467,59-59,59S5,96.533,5,64S31.467,5,64,5 M64,0C28.653,0,0,28.653,0,64
	c0,35.348,28.653,64,64,64c35.348,0,64-28.652,64-64C128,28.653,99.348,0,64,0L64,0z"/>
<path fill="#FFFFFF" d="M104.96,56.478c-5.203,3.716-10.403,7.434-15.608,11.147c-2.494,1.779-4.979,3.572-7.5,5.314
	c-0.547,0.379-0.617,0.705-0.418,1.309c2.869,8.719,5.715,17.445,8.564,26.17c0.041,0.126,0.082,0.253,0.12,0.381
	c0.264,0.879,0.069,1.607-0.595,2.061c-0.701,0.479-1.399,0.402-2.074-0.09c-2.67-1.946-5.342-3.892-8.01-5.838
	c-4.949-3.613-9.904-7.22-14.84-10.852c-0.479-0.352-0.777-0.325-1.239,0.012c-7.453,5.426-14.921,10.832-22.385,16.242
	c-0.172,0.125-0.343,0.252-0.521,0.37c-0.668,0.444-1.355,0.489-2.006,0c-0.671-0.505-0.857-1.188-0.594-1.99
	c0.955-2.907,1.904-5.815,2.86-8.722c1.937-5.889,3.868-11.779,5.825-17.66c0.217-0.65,0.129-1.006-0.466-1.427
	c-7.415-5.25-14.805-10.534-22.201-15.811c-0.281-0.201-0.556-0.412-0.834-0.618c0-0.8,0-1.601,0-2.4
	c0.595-0.168,1.188-0.481,1.784-0.483c9.169-0.031,18.338-0.033,27.507-0.002c0.793,0.003,1.128-0.198,1.38-0.983
	c2.817-8.79,5.684-17.563,8.537-26.342c0.33-1.014,0.852-1.446,1.748-1.448c0.894-0.002,1.42,0.422,1.752,1.445
	c2.836,8.729,5.681,17.455,8.483,26.193c0.264,0.822,0.574,1.148,1.517,1.143c9.142-0.047,18.284-0.037,27.426-0.006
	c0.597,0.002,1.19,0.315,1.786,0.483C104.96,54.877,104.96,55.678,104.96,56.478z M29.905,56.983
	c-0.013,0.064-0.026,0.128-0.039,0.191c0.19,0.14,0.379,0.28,0.57,0.417c6.291,4.487,12.582,8.974,18.873,13.461
	c1.27,0.904,1.423,1.367,0.941,2.834c-2.399,7.306-4.8,14.61-7.196,21.916c-0.084,0.259-0.133,0.525-0.248,0.985
	c0.434-0.307,0.691-0.486,0.946-0.671c6.256-4.536,12.511-9.072,18.767-13.607c1.243-0.899,1.738-0.891,2.995,0.028
	c6.327,4.62,12.654,9.238,18.981,13.855c0.198,0.146,0.409,0.271,0.741,0.49c-0.114-0.391-0.176-0.617-0.248-0.84
	c-2.406-7.359-4.813-14.719-7.223-22.078c-0.52-1.586-0.384-2.006,0.965-2.966c6.271-4.47,12.539-8.938,18.811-13.409
	c0.204-0.145,0.4-0.301,0.602-0.453c-0.018-0.051-0.033-0.104-0.05-0.155c-0.278,0-0.56,0-0.84,0c-7.705,0-15.409,0-23.114,0
	c-1.771-0.001-2.074-0.22-2.629-1.923c-2.404-7.415-4.809-14.83-7.216-22.243c-0.066-0.208-0.174-0.402-0.319-0.733
	c-0.14,0.394-0.233,0.637-0.313,0.885c-2.398,7.39-4.795,14.78-7.195,22.169c-0.519,1.596-0.868,1.845-2.521,1.846
	c-7.731,0-15.463,0-23.194,0C30.469,56.983,30.188,56.983,29.905,56.983z"/>
</svg>
