<?xml version="1.0" encoding="utf-8"?>
<!-- Generator: Adobe Illustrator 16.0.0, SVG Export Plug-In . SVG Version: 6.00 Build 0)  -->
<!DOCTYPE svg PUBLIC "-//W3C//DTD SVG 1.1//EN" "http://www.w3.org/Graphics/SVG/1.1/DTD/svg11.dtd">
<svg version="1.1" id="图层_1" xmlns="http://www.w3.org/2000/svg" xmlns:xlink="http://www.w3.org/1999/xlink" x="0px" y="0px"
	 width="128px" height="128px" viewBox="0 0 128 128" enable-background="new 0 0 128 128" xml:space="preserve">
<path fill="#FFFFFF" d="M64,5c32.533,0,59,26.467,59,59s-26.467,59-59,59S5,96.533,5,64S31.467,5,64,5 M64,0C28.653,0,0,28.653,0,64
	c0,35.348,28.653,64,64,64c35.348,0,64-28.652,64-64C128,28.653,99.348,0,64,0L64,0z"/>
<path fill="#FFFFFF" d="M104.96,48.16c0,1.173,0,2.347,0,3.52c-0.056,0.2-0.124,0.397-0.165,0.6
	c-0.529,2.656-1.82,4.767-4.359,5.926c-0.715,0.327-1.508,0.486-2.328,0.742c0,0.317,0,0.66,0,1.003
	c0,14.23-0.012,28.462,0.02,42.693c0.002,1.037-0.271,1.797-1.166,2.315c-21.975,0-43.946,0-65.92,0
	c-0.904-0.517-1.168-1.282-1.166-2.321c0.03-14.238,0.02-28.479,0.02-42.72c0-0.333,0-0.667,0-1.003
	c-2.97-0.246-4.807-1.875-5.936-4.375c-0.41-0.906-0.618-1.904-0.918-2.861c0-1.173,0-2.347,0-3.52
	c0.106-0.238,0.229-0.471,0.316-0.716c2.662-7.535,5.327-15.068,7.969-22.611c0.264-0.753,0.601-1.397,1.314-1.793
	c20.854,0,41.708,0,62.561,0c0.722,0.342,1.072,0.948,1.332,1.684c1.884,5.33,3.787,10.652,5.699,15.973
	C103.127,43.19,104.049,45.673,104.96,48.16z M63.944,26.426c-9.571,0-19.142,0.007-28.712-0.016
	c-0.635-0.001-0.926,0.172-1.138,0.783c-2.452,7.034-4.972,14.044-7.385,21.091c-0.731,2.134-0.29,4.214,1.054,6.046
	c0.545,0.743,1.313,1.185,2.269,1.129c1.963-0.114,3.487-1.02,4.353-2.786c0.373-0.765,0.464-1.677,0.624-2.533
	c0.138-0.737,0.532-1.212,1.231-1.422c0.68-0.205,1.314-0.027,1.71,0.54c0.255,0.367,0.39,0.867,0.436,1.322
	c0.213,2.127,1.237,3.683,3.218,4.489c1.949,0.794,3.77,0.438,5.352-0.951c1.097-0.964,1.604-2.226,1.688-3.673
	c0.061-1.066,0.72-1.771,1.655-1.8c0.927-0.03,1.623,0.66,1.731,1.711c0.023,0.238,0.055,0.477,0.089,0.714
	c0.36,2.471,2.308,4.231,4.854,4.392c2.266,0.142,4.46-1.428,5.099-3.696c0.171-0.608,0.17-1.264,0.317-1.882
	c0.182-0.759,0.731-1.168,1.493-1.227c0.771-0.059,1.349,0.311,1.656,1.011c0.135,0.307,0.168,0.67,0.19,1.012
	c0.228,3.293,3.406,5.53,6.556,4.551c2.075-0.646,3.276-2.096,3.603-4.254c0.035-0.237,0.055-0.477,0.086-0.715
	c0.129-1.006,0.823-1.651,1.737-1.616c0.907,0.035,1.603,0.737,1.644,1.731c0.076,1.871,0.864,3.345,2.459,4.32
	c3.309,2.024,7.476-0.16,7.776-4.052c0.101-1.282,0.709-1.996,1.708-2.002c0.995-0.006,1.553,0.688,1.732,1.988
	c0.115,0.836,0.248,1.703,0.576,2.469c1.158,2.7,4.924,3.257,6.74,0.975c1.312-1.646,1.661-3.665,1-5.597
	c-2.445-7.12-5.045-14.188-7.553-21.286c-0.221-0.623-0.51-0.782-1.137-0.78C83.085,26.433,73.516,26.426,63.944,26.426z
	 M36.785,55.632c-0.944,0.729-1.853,1.509-2.842,2.163c-0.473,0.313-0.682,0.572-0.681,1.165
	c0.021,13.894,0.017,27.785,0.017,41.679c0,0.284,0,0.569,0,0.883c4.578,0,9.067,0,13.628,0c0-0.366,0-0.683,0-0.996
	c0-9.041,0-18.08,0.001-27.119c0-0.293-0.013-0.59,0.021-0.879c0.128-1.108,0.741-1.662,1.854-1.67
	c1.307-0.01,2.613-0.002,3.92-0.002c8.8,0,17.599-0.002,26.398,0c1.274,0.002,1.916,0.608,1.987,1.875
	c0.015,0.24,0.004,0.479,0.004,0.722c0,9.039,0,18.078,0,27.116c0,0.312,0,0.621,0,0.949c4.597,0,9.085,0,13.628,0
	c0-0.345,0-0.635,0-0.925c0-13.759,0-27.519,0-41.277c0-0.16,0.037-0.333-0.011-0.478c-0.058-0.172-0.151-0.407-0.294-0.468
	c-1.332-0.568-2.408-1.454-3.297-2.655c-1.803,2.068-4.028,3.191-6.746,3.153c-2.744-0.039-4.961-1.232-6.719-3.394
	c-1.789,2.191-4.036,3.387-6.819,3.393c-2.806,0.006-5.06-1.225-6.835-3.365c-3.31,4.148-9.708,4.801-13.674,0.047
	C46.73,59.969,40.352,60.001,36.785,55.632z M50.404,101.52c9.114,0,18.137,0,27.178,0c0-9.105,0-18.155,0-27.217
	c-9.089,0-18.132,0-27.178,0C50.404,83.396,50.404,92.43,50.404,101.52z"/>
</svg>
