<?xml version="1.0" encoding="utf-8"?>
<!-- Generator: Adobe Illustrator 16.0.0, SVG Export Plug-In . SVG Version: 6.00 Build 0)  -->
<!DOCTYPE svg PUBLIC "-//W3C//DTD SVG 1.1//EN" "http://www.w3.org/Graphics/SVG/1.1/DTD/svg11.dtd">
<svg version="1.1" id="Layer_1" xmlns="http://www.w3.org/2000/svg" xmlns:xlink="http://www.w3.org/1999/xlink" x="0px" y="0px"
	 width="16px" height="16px" viewBox="0 8 16 16" enable-background="new 0 8 16 16" xml:space="preserve">
<g>
	<path fill="#FFFFFF" d="M11.676,9.117c-1.071,0-2.1,0.398-2.899,1.122C8.473,10.514,8.213,10.826,8,11.171
		c-0.213-0.345-0.473-0.657-0.776-0.932c-0.8-0.724-1.828-1.122-2.899-1.122C1.94,9.117,0,11.057,0,13.441
		c0,1.609,0.501,2.88,1.674,4.248c1.705,1.989,6.02,5.025,6.202,5.154C7.913,22.87,7.957,22.883,8,22.883s0.087-0.013,0.124-0.039
		c0.183-0.129,4.498-3.165,6.202-5.154C15.499,16.322,16,15.051,16,13.441C16,11.057,14.06,9.117,11.676,9.117z M13.998,17.408
		C12.487,19.171,8.731,21.881,8,22.402c-0.731-0.521-4.486-3.231-5.998-4.994c-1.1-1.283-1.569-2.47-1.569-3.967
		c0-2.146,1.746-3.892,3.892-3.892c0.963,0,1.891,0.359,2.608,1.01c0.362,0.329,0.656,0.716,0.874,1.152
		c0.073,0.147,0.313,0.147,0.388,0c0.217-0.436,0.511-0.823,0.873-1.152c0.719-0.651,1.646-1.01,2.608-1.01
		c2.146,0,3.892,1.746,3.892,3.892C15.567,14.938,15.099,16.125,13.998,17.408z"/>
</g>
</svg>
