<?xml version="1.0" encoding="utf-8"?>
<!-- Generator: Adobe Illustrator 16.0.0, SVG Export Plug-In . SVG Version: 6.00 Build 0)  -->
<!DOCTYPE svg PUBLIC "-//W3C//DTD SVG 1.1//EN" "http://www.w3.org/Graphics/SVG/1.1/DTD/svg11.dtd">
<svg version="1.1" id="图层_1" xmlns="http://www.w3.org/2000/svg" xmlns:xlink="http://www.w3.org/1999/xlink" x="0px" y="0px"
	 width="128px" height="128px" viewBox="0 0 128 128" enable-background="new 0 0 128 128" xml:space="preserve">
<path fill="#FFFFFF" d="M64,5c32.533,0,59,26.467,59,59s-26.467,59-59,59S5,96.533,5,64S31.467,5,64,5 M64,0C28.653,0,0,28.653,0,64
	c0,35.348,28.653,64,64,64c35.348,0,64-28.652,64-64C128,28.653,99.348,0,64,0L64,0z"/>
<g>
	<path fill="#FFFFFF" d="M63.534,104.96c-0.8-0.409-1.247-1.032-1.255-1.959c-0.026-3.175-1.287-5.888-3.176-8.354
		c-2.238-2.922-5.07-5.23-7.85-7.601c-3.729-3.178-7.548-6.269-11.081-9.653c-4.534-4.345-7.898-9.513-9.334-15.724
		c-2.071-8.962-0.95-17.431,4.395-25.09c3.814-5.465,9.065-9.073,15.3-11.299c3.38-1.208,6.868-1.907,10.454-2.113
		c0.265-0.015,0.524-0.083,0.787-0.127c1.493,0,2.986,0,4.479,0c2.004,0.268,4.032,0.417,6.007,0.822
		c9.229,1.896,16.77,6.391,21.756,14.592c3.44,5.659,4.535,11.872,3.985,18.42c-0.747,8.916-5.08,15.991-11.507,21.872
		c-4.104,3.756-8.482,7.21-12.695,10.85c-2.669,2.309-5.15,4.797-6.736,8.026c-0.783,1.596-1.281,3.272-1.297,5.06
		c-0.009,1.021-0.318,1.813-1.271,2.278C64.174,104.96,63.854,104.96,63.534,104.96z M63.902,95.777
		c1.314-1.721,2.43-3.58,3.926-5.053c2.785-2.742,5.734-5.328,8.722-7.855c3.907-3.305,7.941-6.458,11.249-10.407
		c6.309-7.534,8.389-16.147,6.051-25.638c-2.188-8.895-8.037-14.744-16.468-17.989c-7.644-2.942-15.504-3.117-23.396-1.097
		c-5.569,1.425-10.446,4.143-14.261,8.512c-5.66,6.482-7.294,14.104-6.023,22.452c0.892,5.856,3.727,10.762,7.678,15.081
		c3.089,3.376,6.647,6.223,10.172,9.113C56.203,86.712,61.013,90.386,63.902,95.777z"/>
	<path fill="#FFFFFF" d="M75.88,50.705c0.005,6.596-5.37,11.992-11.929,11.973c-6.57-0.02-11.957-5.43-11.937-11.985
		c0.022-6.57,5.468-11.99,11.989-11.934C70.578,38.817,75.874,44.145,75.88,50.705z M63.985,59.228
		c4.712-0.01,8.541-3.858,8.509-8.555c-0.032-4.714-3.852-8.472-8.599-8.46c-4.66,0.012-8.494,3.855-8.487,8.51
		C55.415,55.416,59.27,59.237,63.985,59.228z"/>
</g>
</svg>
