<?xml version="1.0" encoding="utf-8"?>
<!-- Generator: Adobe Illustrator 16.0.0, SVG Export Plug-In . SVG Version: 6.00 Build 0)  -->
<!DOCTYPE svg PUBLIC "-//W3C//DTD SVG 1.1//EN" "http://www.w3.org/Graphics/SVG/1.1/DTD/svg11.dtd">
<svg version="1.1" id="图层_1" xmlns="http://www.w3.org/2000/svg" xmlns:xlink="http://www.w3.org/1999/xlink" x="0px" y="0px"
	 width="128px" height="128px" viewBox="0 0 128 128" enable-background="new 0 0 128 128" xml:space="preserve">
<path fill="#FFFFFF" d="M64,5c32.533,0,59,26.467,59,59s-26.467,59-59,59S5,96.533,5,64S31.467,5,64,5 M64,0C28.653,0,0,28.653,0,64
	c0,35.348,28.653,64,64,64c35.348,0,64-28.652,64-64C128,28.653,99.348,0,64,0L64,0z"/>
<g>
	<path fill="#FFFFFF" d="M29.931,47.812c0,1.169,0.039,2.209-0.011,3.245c-0.06,1.283-0.994,2.039-2.109,1.778
		c-0.77-0.18-1.297-0.776-1.32-1.69c-0.042-1.679-0.051-3.36,0.004-5.038c0.036-1.082,0.706-1.73,1.811-1.741
		c3.412-0.035,6.826-0.026,10.238-0.008c0.977,0.005,1.501,0.602,1.846,1.491c3.503,9.06,7.028,18.11,10.547,27.165
		c1.07,2.752,2.148,5.504,3.203,8.262c0.172,0.447,0.373,0.66,0.906,0.658c11.386-0.018,22.771-0.014,34.156-0.015
		c0.104,0,0.212-0.011,0.409-0.021c2.619-6.879,5.25-13.781,7.91-20.769c-1.982-0.275-3.9-0.545-5.819-0.81
		c-5.618-0.776-11.237-1.551-16.854-2.325c-5.619-0.774-11.239-1.546-16.856-2.322c-2.559-0.354-5.119-0.7-7.674-1.079
		c-1.126-0.167-1.79-1.023-1.612-1.979c0.182-0.977,1.065-1.532,2.185-1.378c10.394,1.436,20.786,2.868,31.18,4.302
		c5.83,0.805,11.66,1.606,17.488,2.414c1.83,0.253,2.377,1.186,1.723,2.901c-2.92,7.655-5.838,15.311-8.758,22.966
		c-0.467,1.224-0.844,1.482-2.137,1.482c-12.213,0.002-24.425,0.002-36.637,0c-1.433,0-1.798-0.248-2.32-1.59
		C46.881,72.006,42.327,60.3,37.797,48.585c-0.228-0.588-0.494-0.807-1.144-0.793C34.446,47.841,32.238,47.812,29.931,47.812z"/>
	<path fill="#FFFFFF" d="M81.838,102.398c-4.166-0.017-7.561-3.428-7.555-7.592c0.006-4.192,3.453-7.605,7.652-7.58
		c4.141,0.025,7.539,3.479,7.52,7.638C89.436,99.02,86.002,102.414,81.838,102.398z M81.975,90.643
		c-2.266-0.082-4.185,1.739-4.285,4.069c-0.096,2.228,1.766,4.188,4.072,4.298c2.229,0.104,4.184-1.765,4.275-4.086
		C86.128,92.657,84.298,90.729,81.975,90.643z"/>
	<path fill="#FFFFFF" d="M54.576,94.814c0.001-4.191,3.391-7.59,7.568-7.588c4.17,0.002,7.588,3.426,7.577,7.588
		c-0.012,4.191-3.398,7.582-7.579,7.584C57.96,102.4,54.576,99.008,54.576,94.814z M66.307,94.83
		c0.014-2.305-1.84-4.175-4.148-4.188c-2.277-0.015-4.183,1.879-4.192,4.162c-0.01,2.269,1.895,4.189,4.165,4.205
		C64.404,99.025,66.294,97.135,66.307,94.83z"/>
	<path fill="#FFFFFF" d="M91.361,37.554c0,2.125,0,4.145-0.002,6.164c0,1.543-0.621,2.378-1.748,2.357
		c-1.102-0.021-1.688-0.835-1.688-2.341c0-2.021,0-4.042,0-6.181c-0.345,0-0.626,0-0.907,0c-1.865,0-3.73,0.008-5.597-0.003
		c-1.222-0.007-2-0.673-2.017-1.688c-0.016-1.051,0.777-1.737,2.041-1.743c1.84-0.009,3.679-0.002,5.519-0.002
		c0.286,0,0.573,0,0.961,0c0-0.866,0-1.656,0-2.446c0-1.413-0.017-2.826,0.007-4.238c0.018-1.084,0.729-1.821,1.705-1.831
		c0.969-0.01,1.7,0.726,1.717,1.817c0.026,1.919,0.008,3.838,0.01,5.757c0,0.285,0,0.569,0,0.94c1.869,0,3.646,0,5.426,0
		c0.451,0,0.906-0.018,1.357,0.007c1.021,0.055,1.74,0.783,1.734,1.724c-0.007,0.939-0.729,1.68-1.759,1.696
		c-1.998,0.03-3.998,0.01-5.997,0.011C91.914,37.554,91.703,37.554,91.361,37.554z"/>
</g>
</svg>
