<?xml version="1.0" encoding="utf-8"?>
<!-- Generator: Adobe Illustrator 16.0.0, SVG Export Plug-In . SVG Version: 6.00 Build 0)  -->
<!DOCTYPE svg PUBLIC "-//W3C//DTD SVG 1.1//EN" "http://www.w3.org/Graphics/SVG/1.1/DTD/svg11.dtd">
<svg version="1.1" id="Layer_1" xmlns="http://www.w3.org/2000/svg" xmlns:xlink="http://www.w3.org/1999/xlink" x="0px" y="0px"
	 width="16px" height="16px" viewBox="0 8 16 16" enable-background="new 0 8 16 16" xml:space="preserve">
<g>
	<path fill="#FFFFFF" d="M13.582,15.247c-0.101-0.031-0.208,0.023-0.24,0.124c-0.031,0.1,0.024,0.207,0.125,0.239
		c1.488,0.474,2.152,1.181,2.152,2.294c0,0.99-0.903,1.76-1.441,2.129c-0.052,0.037-0.082,0.094-0.082,0.158v1.455
		c-0.278-0.104-0.764-0.338-1.191-0.82c-0.045-0.051-0.112-0.072-0.178-0.061c-0.109,0.021-0.22,0.051-0.332,0.08
		C12.2,20.898,12,20.953,11.81,20.953c-0.979,0-1.663-0.211-2.363-0.725c-0.085-0.063-0.204-0.045-0.267,0.039
		c-0.063,0.086-0.044,0.205,0.041,0.268c0.771,0.566,1.521,0.799,2.589,0.799c0.24,0,0.466-0.061,0.684-0.119
		c0.067-0.02,0.136-0.037,0.202-0.053c0.712,0.752,1.518,0.924,1.553,0.93c0.013,0.002,0.024,0.004,0.038,0.004
		c0.043,0,0.086-0.016,0.12-0.043c0.045-0.037,0.07-0.09,0.07-0.148v-1.615C15.46,19.588,16,18.744,16,17.904
		C16,16.617,15.231,15.772,13.582,15.247z"/>
	<path fill="#FFFFFF" d="M12.571,15.048c0-2.932-2.673-5.143-6.218-5.143C2.791,9.905,0,12.165,0,15.048
		c0,1.729,1.224,2.967,2.286,3.717v2.529c0,0.064,0.032,0.125,0.087,0.158c0.031,0.021,0.066,0.031,0.104,0.031
		c0.025,0,0.053-0.006,0.078-0.016c0.056-0.025,1.355-0.617,2.468-1.832c0.482,0.09,1.027,0.176,1.521,0.176
		C10.148,19.813,12.571,17.896,12.571,15.048z M6.544,19.43c-0.499,0-1.066-0.094-1.556-0.188c-0.066-0.012-0.134,0.01-0.179,0.061
		c-0.78,0.881-1.698,1.439-2.143,1.682v-2.318c0-0.063-0.031-0.121-0.083-0.156c-1.005-0.691-2.203-1.854-2.203-3.461
		c0-2.67,2.623-4.762,5.973-4.762c3.328,0,5.837,2.047,5.837,4.762C12.19,17.67,9.921,19.43,6.544,19.43z"/>
	<path fill="#FFFFFF" d="M6.286,14.286c-0.421,0-0.763,0.341-0.763,0.762c0,0.42,0.342,0.762,0.763,0.762
		c0.42,0,0.762-0.342,0.762-0.762C7.048,14.627,6.706,14.286,6.286,14.286z M6.286,15.429c-0.21,0-0.382-0.171-0.382-0.381
		c0-0.21,0.172-0.381,0.382-0.381c0.209,0,0.381,0.17,0.381,0.381C6.667,15.258,6.495,15.429,6.286,15.429z"/>
	<path fill="#FFFFFF" d="M8.952,14.286c-0.42,0-0.762,0.341-0.762,0.762c0,0.42,0.342,0.762,0.762,0.762
		c0.421,0,0.762-0.342,0.762-0.762C9.714,14.627,9.373,14.286,8.952,14.286z M8.952,15.429c-0.21,0-0.381-0.171-0.381-0.381
		c0-0.21,0.171-0.381,0.381-0.381s0.381,0.17,0.381,0.381C9.333,15.258,9.162,15.429,8.952,15.429z"/>
	<path fill="#FFFFFF" d="M3.619,14.322c-0.42,0-0.762,0.342-0.762,0.762c0,0.421,0.342,0.762,0.762,0.762s0.762-0.341,0.762-0.762
		C4.381,14.664,4.039,14.322,3.619,14.322z M3.619,15.465c-0.21,0-0.381-0.17-0.381-0.381s0.171-0.381,0.381-0.381
		S4,14.874,4,15.084S3.829,15.465,3.619,15.465z"/>
</g>
</svg>
