<?xml version="1.0" encoding="utf-8"?>
<!-- Generator: Adobe Illustrator 16.0.0, SVG Export Plug-In . SVG Version: 6.00 Build 0)  -->
<!DOCTYPE svg PUBLIC "-//W3C//DTD SVG 1.1//EN" "http://www.w3.org/Graphics/SVG/1.1/DTD/svg11.dtd">
<svg version="1.1" id="图层_1" xmlns="http://www.w3.org/2000/svg" xmlns:xlink="http://www.w3.org/1999/xlink" x="0px" y="0px"
	 width="128px" height="128px" viewBox="0 0 128 128" enable-background="new 0 0 128 128" xml:space="preserve">
<path fill="#FFFFFF" d="M64,5c32.533,0,59,26.467,59,59s-26.467,59-59,59S5,96.533,5,64S31.467,5,64,5 M64,0C28.653,0,0,28.653,0,64
	c0,35.348,28.653,64,64,64c35.348,0,64-28.652,64-64C128,28.653,99.348,0,64,0L64,0z"/>
<g>
	<path fill="#FFFFFF" d="M104.96,65.896c-0.315,1.307-0.543,2.643-0.96,3.916c-4.266,13.014-20.479,17.203-30.549,7.914
		c-1.848-1.703-3.278-3.699-4.324-5.979c-0.48-1.049-0.21-2.027,0.68-2.468c0.926-0.458,1.879-0.065,2.399,1.024
		c2.071,4.336,5.392,7.238,10.03,8.497c9.408,2.55,18.727-4.26,19.281-14.034c0.41-7.186-4.39-13.781-11.385-15.646
		c-6.927-1.847-14.313,1.435-17.57,7.806c-0.146,0.285-0.274,0.578-0.422,0.86c-0.488,0.939-1.391,1.301-2.259,0.913
		c-0.907-0.406-1.253-1.361-0.819-2.352c0.949-2.174,2.271-4.105,3.979-5.747c3.971-3.817,8.725-5.6,14.23-5.361
		c8.43,0.365,15.936,6.971,17.367,15.284c0.09,0.512,0.213,1.019,0.32,1.528C104.96,63.336,104.96,64.616,104.96,65.896z"/>
	<path fill="#FFFFFF" d="M23.04,62.056c0.367-1.46,0.628-2.957,1.117-4.375c4.344-12.6,20.589-16.605,30.337-7.511
		c1.796,1.675,3.235,3.598,4.272,5.825c0.58,1.246,0.383,2.195-0.58,2.677c-0.96,0.48-1.856,0.042-2.469-1.169
		c-2.833-5.604-7.382-8.685-13.661-8.859c-8.274-0.229-15.112,6.247-15.575,14.53c-0.404,7.229,4.473,13.896,11.456,15.668
		c7.159,1.814,14.552-1.625,17.717-8.246c0.069-0.144,0.122-0.296,0.196-0.438c0.505-0.961,1.454-1.316,2.338-0.881
		c0.87,0.432,1.24,1.438,0.701,2.384c-0.866,1.521-1.669,3.134-2.814,4.431c-5.043,5.71-11.427,7.891-18.802,6.045
		c-7.44-1.861-12.005-6.854-13.834-14.313c-0.156-0.638-0.267-1.284-0.399-1.927C23.04,64.616,23.04,63.336,23.04,62.056z"/>
	<path fill="#FFFFFF" d="M64.001,65.709c-5.411,0-10.822,0-16.234,0c-0.266,0-0.534,0.012-0.798-0.016
		c-1.073-0.111-1.725-0.78-1.712-1.742c0.012-0.928,0.645-1.571,1.681-1.689c0.237-0.027,0.479-0.018,0.719-0.018
		c10.901-0.001,21.804-0.001,32.706,0.004c0.396,0.001,0.805,0.021,1.186,0.119c0.779,0.199,1.221,0.853,1.197,1.673
		c-0.021,0.772-0.484,1.384-1.243,1.558c-0.385,0.088-0.792,0.106-1.188,0.107C74.876,65.712,69.438,65.709,64.001,65.709z"/>
</g>
</svg>
