<?xml version="1.0" encoding="utf-8"?>
<!-- Generator: Adobe Illustrator 16.0.0, SVG Export Plug-In . SVG Version: 6.00 Build 0)  -->
<!DOCTYPE svg PUBLIC "-//W3C//DTD SVG 1.1//EN" "http://www.w3.org/Graphics/SVG/1.1/DTD/svg11.dtd">
<svg version="1.1" id="图层_1" xmlns="http://www.w3.org/2000/svg" xmlns:xlink="http://www.w3.org/1999/xlink" x="0px" y="0px"
	 width="16px" height="16px" viewBox="0 0 16 16" enable-background="new 0 0 16 16" xml:space="preserve">
<g>
	<path fill="#FFFFFF" d="M8,0.046C3.605,0.046,0.03,3.614,0.03,8c0,4.386,3.575,7.954,7.97,7.954c4.395,0,7.97-3.568,7.97-7.954
		C15.97,3.614,12.395,0.046,8,0.046z M8,15.013c-3.875,0-7.027-3.146-7.027-7.013S4.125,0.987,8,0.987
		c3.875,0,7.026,3.146,7.026,7.013S11.875,15.013,8,15.013z"/>
</g>
<g>
	<rect x="7.5" y="3.343" fill="#FFFFFF" width="1" height="9.314"/>
</g>
<g>
	<rect x="3.343" y="7.5" fill="#FFFFFF" width="9.314" height="1"/>
</g>
</svg>
